<?xml version="1.0" encoding="utf-8"?>
<!-- Generator: Adobe Illustrator 24.0.0, SVG Export Plug-In . SVG Version: 6.00 Build 0)  -->
<svg width="46" height="46" version="1.1" id="Layer_1" xmlns="http://www.w3.org/2000/svg" xmlns:xlink="http://www.w3.org/1999/xlink" x="0px" y="0px"
	 viewBox="0 0 46 46" style="enable-background:new 0 0 46 46;" xml:space="preserve">
<style type="text/css">
	.st0{fill:none;}
</style>
<path d="M31.5,28h-1.8L29,27.4c2.3-2.7,3.7-6.1,3.7-9.9c0-8.4-6.8-15.1-15.1-15.1S2.4,9.2,2.4,17.5s6.8,15.1,15.1,15.1
	c3.7,0,7.2-1.4,9.9-3.7l0.6,0.7v1.8l11.6,11.6l3.5-3.5L31.5,28z M17.5,28C11.7,28,7,23.3,7,17.5S11.7,7,17.5,7S28,11.7,28,17.5
	S23.3,28,17.5,28z"/>
<path class="st0" d="M11,11h24v24H11V11z"/>
</svg>
